<?xml version="1.0" encoding="UTF-8" standalone="no"?>
<svg
   version="1.0"
   width="1150pt"
   height="170pt"
   viewBox="0 0 1150 170"
   preserveAspectRatio="xMidYMid"
   id="svg36"
   sodipodi:docname="Logo.svg"
   inkscape:version="1.4-rc1 (61ec3f2, 2024-09-26)"
   xmlns:inkscape="http://www.inkscape.org/namespaces/inkscape"
   xmlns:sodipodi="http://sodipodi.sourceforge.net/DTD/sodipodi-0.dtd"
   xmlns="http://www.w3.org/2000/svg"
   xmlns:svg="http://www.w3.org/2000/svg">
  <defs
     id="defs36" />
  <sodipodi:namedview
     id="namedview36"
     pagecolor="#505050"
     bordercolor="#ffffff"
     borderopacity="1"
     inkscape:showpageshadow="0"
     inkscape:pageopacity="0"
     inkscape:pagecheckerboard="1"
     inkscape:deskcolor="#505050"
     inkscape:document-units="pt"
     inkscape:zoom="0.685"
     inkscape:cx="840.14598"
     inkscape:cy="106.56934"
     inkscape:window-width="1920"
     inkscape:window-height="1017"
     inkscape:window-x="-8"
     inkscape:window-y="-8"
     inkscape:window-maximized="1"
     inkscape:current-layer="svg36" />
  <metadata
     id="metadata1">
Created by potrace 1.10, written by Peter Selinger 2001-2011
</metadata>
  <g
     transform="matrix(0.1,0,0,-0.1,-119.34307,335.03649)"
     fill="#000000"
     stroke="none"
     id="g36">
    <path
       d="m 2063,3245 c -39,-27 -35,-52 14,-87 55,-40 117,-131 140,-206 24,-81 33,-85 33,-16 0,107 -51,236 -115,292 -41,37 -43,37 -72,17 z"
       id="path1"
       style="fill:#683a23;fill-opacity:1"
       sodipodi:nodetypes="cccscc" />
    <path
       style="fill:#8abf27;fill-opacity:1;stroke-width:56.693;stroke-linecap:round;stroke-linejoin:round;stroke-miterlimit:4.2;paint-order:markers fill stroke"
       d="m 2671.9733,3230.3046 -104.5176,-48.8717 -48.3878,-27.0971 -24.1939,-9.6776 -107.9047,-32.9036 -37.2586,-33.8715 37.7425,78.3882 49.3555,38.7103 93.3884,33.8714 63.388,5.3227 54.1943,1.9355 z"
       id="path44" />
    <path
       style="fill:#56b719;fill-opacity:1;stroke-width:56.693;stroke-linecap:round;stroke-linejoin:round;stroke-miterlimit:4.2;paint-order:markers fill stroke"
       d="m 2418.9052,3114.6578 -103.5498,-134.518 79.8398,-13.5486 117.5823,18.8713 62.9042,49.3555 39.6779,48.8716 36.7747,62.9041 14.0324,57.5815 -58.5491,2.9033 -89.5174,-29.5166 -74.5172,-41.1295 z"
       id="path45" />
    <path
       d="m 2509,3246 c -101,-27 -171,-90 -213,-190 -26,-63 -20,-75 18,-34 37,40 151,118 173,118 7,0 13,4 13,8 0,17 -13,21 -34,10 -11,-7 -24,-12 -28,-13 -3,0 -10,-3 -14,-7 -4,-5 -16,-8 -26,-8 -10,0 -18,-4 -18,-10 0,-5 -6,-10 -12,-10 -12,1 77,84 91,86 3,0 13,3 21,6 50,20 88,28 124,28 l 41,-1 -27,-15 c -36,-19 -35,-26 2,-19 17,3 30,2 30,-1 0,-24 -60,-116 -98,-151 -61,-56 -172,-82 -172,-42 0,6 5,7 10,4 6,-3 10,-1 10,6 0,15 28,39 90,79 69,44 73,67 7,34 -81,-41 -196,-139 -197,-168 0,-5 39,-7 88,-4 98,5 159,28 211,82 38,39 78,120 87,173 l 6,40 -47,6 c -63,9 -81,8 -136,-7 z"
       id="path2"
       style="fill:#438424;fill-opacity:1" />
    <path
       d="m 2540,3170 c -19,-11 -31,-19 -27,-20 11,0 67,29 67,35 0,7 -1,7 -40,-15 z"
       id="path3"
       style="fill:#43b524;fill-opacity:1" />
    <path
       style="fill:#56b719;fill-opacity:1;stroke-width:56.693;stroke-linecap:round;stroke-linejoin:round;stroke-miterlimit:4.2;paint-order:markers fill stroke"
       d="m 2435.8409,2883.8481 49.3556,3.8711 53.2265,-7.7421 79.356,-12.5809 58.0653,-29.0326 40.6457,-24.1939 36.7748,-30.0004 28.0649,-30.0005 16.4518,-28.0649 -47.42,1.9355 -54.1943,5.8066 -45.4845,3.871 -52.2588,-1.9355 -54.1943,-8.7098 -49.3556,-15.4841 -54.1943,-16.4519 -37.7425,-8.7097 -39.678,39.6779 37.7425,131.6148 z"
       id="path46" />
    <path
       d="m 2365,2874 c -95,-24 -151,-26 -211,-8 -20,5 -23,0 -38,-65 -18,-81 -20,-136 -6,-212 10,-57 59,-189 69,-188 3,0 19,27 35,61 40,84 142,186 226,226 84,39 185,55 269,41 35,-5 72,-14 82,-19 29,-16 31,-12 12,21 -43,74 -146,139 -248,158 -74,14 -71,14 -190,-15 z m 348.1616,-64.3547 c 23,-17 79.1989,-65.4214 61.3552,-70.7425 -23.2459,-6.9319 -127.7756,2.8388 -166.7756,2.8388 -66,1 -215.5825,-64.5494 -194.5825,-43.5494 4,4 -25.8715,132.0017 30.2584,178.6152 3,18 175.3462,-21.4356 199.0992,-29.3878 29.4444,-9.8575 47.6453,-20.7743 70.6453,-37.7743 z"
       id="path4"
       sodipodi:nodetypes="ccccccccccccsscscss"
       style="fill:#83bf03;fill-opacity:1" />
    <path
       style="fill:#d5b31c;fill-opacity:1;stroke-width:56.693;stroke-linecap:round;stroke-linejoin:round;stroke-miterlimit:4.2;paint-order:markers fill stroke"
       d="m 1642.2813,2477.3907 -9.6775,-95.8078 9.6775,-61.9363 17.4196,-31.936 81.2915,47.42 171.2927,59.0331 135.4858,10.6454 77.4205,-7.7421 -33.8715,60.0009 -77.4204,51.291 -85.1625,21.2906 -97.7433,2.9033 -131.6148,-23.2261 -26.1294,-21.2906 z"
       id="path39" />
    <path
       d="m 1873,2871 c -72,-25 -126,-62 -173,-122 -22,-28 -40,-54 -40,-59 0,-4 21,-3 47,2 103,22 245,-25 338,-113 l 54,-51 -10,33 c -15,49 -13,216 4,271 14,45 14,47 -7,52 -44,12 -162,5 -213,-13 z"
       id="path5"
       sodipodi:nodetypes="ccsccccccc"
       style="fill:#afc930;fill-opacity:1" />
    <path
       d="m 2531,2694 c -84,-22 -147,-62 -214,-134 -60,-65 -126,-174 -113,-187 3,-3 53,-8 111,-11 160,-7 252,26 358,126 59,57 142,181 129,193 -13,12 -112,29 -165,28 -29,0 -76,-7 -106,-15 z"
       id="path6"
       sodipodi:nodetypes="ccsccscc"
       style="fill:#23a962;fill-opacity:1" />
    <path
       style="fill:#64ff20;fill-opacity:1;stroke-width:56.693;stroke-linecap:round;stroke-linejoin:round;stroke-miterlimit:4.2;paint-order:markers fill stroke"
       d="m 2070.0293,2324.4854 -101.6143,-73.5495 -59.0331,-126.776 -37.7425,-128.7115 -0.9677,-122.9049 37.7424,-74.5172 76.4527,-51.2911 70.6462,-17.4195 85.1624,13.5485 20.3229,22.2584 -14.5163,53.2265 -42.5813,92.9046 -10.6453,103.5498 -16.4519,92.9046 12.5809,97.7433 19.3551,68.7107 -11.6131,45.4845 z"
       id="path40" />
    <path
       d="m 1679,2663 c -33,-4 -37,-8 -49,-46 -19,-65 -24,-185 -10,-280 7,-48 16,-89 20,-92 4,-2 15,4 25,15 79,87 274,148 422,132 l 72,-8 -21,35 c -53,88 -82,122 -139,165 -94,71 -185,93 -320,79 z m 280.3882,-159.0017 c 8,-6 42.5808,-17.9678 61.5808,-24.9678 41,-16 15.5331,3.8887 80.0314,-47.8375 9,-7 -9.0004,14.807 -4.0004,3.807 11,-19 8,-20 -81,-21 -107,-1 -204,-27 -292,-80 -38,-23 -61,-31 -67,-25 -18,18 -23.9678,70.9661 -9.9678,136.9661 7,32 105.0336,55.2579 108.0336,60.2579 69.9041,6.1935 164.0963,2.0645 204.3224,-2.2257 z"
       id="path7"
       sodipodi:nodetypes="ccccccccccccccccsccc"
       style="fill:#e5c614;fill-opacity:1" />
    <path
       style="fill:#098da5;fill-opacity:1;stroke-width:56.693;stroke-linecap:round;stroke-linejoin:round;stroke-miterlimit:4.2;paint-order:markers fill stroke"
       d="m 2406.8083,2312.8723 259.3585,84.1947 85.1625,27.0972 49.3555,-20.3229 22.2584,-12.5808 19.3551,-34.8393 c 0,0 4.8388,-37.7424 4.8388,-43.5489 0,-5.8066 -13.5486,-51.2911 -13.5486,-51.2911 l -12.5808,-48.3878 -5.8066,-22.2584 -248.2232,55.4974 z"
       id="path42"
       sodipodi:nodetypes="ccccccsccccc" />
    <path
       style="fill:#00a5c5;fill-opacity:1;stroke-width:56.693;stroke-linecap:round;stroke-linejoin:round;stroke-miterlimit:4.2;paint-order:markers fill stroke"
       d="m 2253.9029,2315.7755 40.6457,-78.3882 55.1621,-61.9363 95.8078,-64.8396 120.0017,-49.3556 89.0335,-7.7421 55.1621,9.6777 56.1298,11.6129 23.2261,55.1622 23.2262,57.0975 1.9355,16.4519 -402.5864,118.0662 z"
       id="path43" />
    <path
       d="m 2797,2609 c -37,-78 -143,-185 -219,-221 -109,-53 -242,-73 -327,-48 -19,5 -37,8 -39,6 -8,-9 77,-122 124,-167 106,-98 206,-134 352,-127 64,4 97,10 103,19 19,31 69,200 80,270 14,90 7,217 -16,282 -9,26 -20,47 -23,46 -4,0 -20,-27 -35,-60 z m 5.5477,-223.4196 C 2828.4837,2372.3224 2837,2349 2835,2330 c -12.1771,-106.5494 -72.6963,-231.4529 -82,-238 -33,-23 -149,-28 -198,-8 -16,7 -36,11 -42,9 -10.6545,8.0146 -16.4837,9.9224 -40,22 -16,3 -42,17 -60,31 -17,13 -36,24 -42,24 -6,0 -11,4 -11,9 0,5 -15,24 -33,43 -31,30 -70.9675,81.0461 -57,82 73.4744,5.0177 119.9229,3.238 147,6 15,0 52,9 82,19 31,11 75,25 98,30 99.3024,30.2679 89.0313,60.5991 205.5477,26.5804 z"
       id="path8"
       sodipodi:nodetypes="ccccccccccccccccccsscssccc"
       style="fill:#006c81;fill-opacity:1" />
    <path
       style="fill:#064556;fill-opacity:1;stroke-width:56.693;stroke-linecap:round;stroke-linejoin:round;stroke-miterlimit:4.2;paint-order:markers fill stroke"
       d="m 2190.031,2267.3878 263.2295,-247.7455 172.2605,-105.4853 -22.2583,-69.6785 -55.1621,-54.1943 -57.0976,-43.549 -114.1952,-1.9355 -108.3886,31.936 -56.1298,37.7425 -31.936,56.1297 -27.0971,88.0658 -13.5486,94.84 -1.9355,77.4205 19.3551,110.3242 z"
       id="path41" />
    <path
       d="m 1892,2350 c -82,-22 -155,-58 -209,-105 l -37,-32 23,-64 c 86,-236 262,-438 384,-439 16,0 57,8 91,17 l 63,16 -28,46 c -88,142 -105,371 -39,525 l 18,44 -36,6 c -66,11 -156,5 -230,-14 z m 31,-206 c 3,-3 14,14 26,38 23,46 63,94 101,121 22,15 24,15 36,-1 13,-17 9,-57 -8,-79 -10,-12 -13,-202 -4,-243 3,-14 9,-38 12,-55 7,-32 9,-37 42,-104 29,-58 18,-71 -59,-71 -45,0 -68,6 -97,24 -38,24 -80,65 -81,79 -1,4 -1,13 -2,20 0,6 -4,4 -8,-7 -6,-16 -11,-13 -36,20 -16,22 15.3878,-26.7429 11.3878,-25.7429 -4,2 74.6146,-77.397 43.291,-17.9686 -50.3975,95.6161 46.3233,331.1977 37.3233,327.1977 -7,-2 -8.4845,88.9051 -14.0021,-25.4862 z"
       id="path9"
       sodipodi:nodetypes="ccccccccccscssccccccsccccccscs"
       style="fill:#4b8d20;fill-opacity:1" />
    <path
       d="m 2171,2327 c -35,-91 -46,-148 -45,-242 0,-109 19,-185 72,-279 l 27,-50 102,-25 c 87,-21 108,-23 140,-13 63,19 131,70 187,141 57,72 121,170 115,175 -2,3 -28,-1 -58,-6 -76,-16 -174,2 -268,46 -90,43 -193,141 -235,225 -27,53 -28,54 -37,28 z m 74,-137 c 68,-77 106.129,-112.9033 166.9673,-160.7098 8.3539,-15.8061 50.7735,-36.3224 84.3534,-63.4518 35.9678,-17.4519 65.6131,-37.936 68.6131,-46.936 7,-18 57.0662,-52.9024 0.066,-101.9024 -59.4514,-71.6776 -97.3543,-50.9996 -110.0632,-49.2257 -19.8388,2.129 -26.7094,1.4192 -51.7094,5.4192 -29,4 -93.536,15.1695 -101.1298,20 C 2278.8714,1807.9678 2233,1825 2219,1840 c -52,52 -81,246 -53,360 15,64 14,64 79,-10 z"
       id="path10"
       sodipodi:nodetypes="cccccccccccccccccccsccc"
       style="fill:#072f3d;fill-opacity:1" />
    <path
       style="fill:#83bf03;fill-opacity:1;stroke-width:56.693;stroke-linecap:round;stroke-linejoin:round;stroke-miterlimit:4.2;paint-order:markers fill stroke"
       d="M 2686.4897,2781.266 Z"
       id="path37" />
    <text
       xml:space="preserve"
       style="font-size:944.02px;line-height:3.9;font-family:'Informal Roman';-inkscape-font-specification:'Informal Roman, ';text-align:center;writing-mode:lr-tb;direction:ltr;text-anchor:middle;fill:#56b719;fill-opacity:1;stroke-width:56.6929;stroke-linecap:round;stroke-linejoin:round;stroke-miterlimit:4.2;paint-order:markers fill stroke"
       x="7533.5225"
       y="-1835.4752"
       id="text46"
       transform="scale(0.92465093,-1.0814892)"><tspan
         sodipodi:role="line"
         id="tspan46"
         style="font-style:normal;font-variant:normal;font-weight:normal;font-stretch:normal;font-size:944.02px;font-family:Verdana;-inkscape-font-specification:Verdana;fill:#242124;fill-opacity:1;stroke-width:56.6929"
         x="7533.5225"
         y="-1835.4752">Revoluciona tu nutrición</tspan></text>
  </g>
</svg>
